<svg id="Capa_1" enable-background="new 0 0 512 512" height="512" viewBox="0 0 512 512" width="512" xmlns="http://www.w3.org/2000/svg"><g><g><g><g><g><g><circle cx="256" cy="256" fill="#6D28D9" r="256"/></g></g></g></g></g><path d="m512 256c0-14.285-1.184-28.292-3.433-41.94l-117.122-116.961-330.748 262.712 147.01 147.633c15.64 2.985 31.783 4.556 48.293 4.556 141.385 0 256-114.615 256-256z" fill="#5B21B6"/><g><path d="m362.972 97.099-20.147 2.853-16.29-2.853h-31.6l-123.747 138.79 55.078 4.291 41.862-4.291-.005.117 81.759 4.059 41.563-142.966z" fill="#fad17f"/><path d="m177.391 228.396-116.694 131.415 31.593-.001 20.764-5.228 15.684 5.228 28.469.001 75.06-57.352 42.059-73.946z" fill="#ffe89c"/><path d="m326.528 97.099-123.747 138.79 17.621 2.766 18.822-2.766 123.747-138.79z" fill="#ff475a"/><path d="m92.29 359.81h36.444l117.091-131.355h-36.444z" fill="#ff636e"/><g><path d="m157.207 359.811h234.238v-262.712z" fill="#ffce00"/></g><g><path d="m274.326 228.455 117.119 131.356v-262.712z" fill="#fdba12"/></g><g><path d="m339.303 181.964h27.764v154.749h-27.764z" fill="#fdba12" transform="matrix(-1 0 0 -1 706.37 518.677)"/></g><path d="m367.067 332.469v-150.505l-27.764-.001v119.367z" fill="#ffa300"/><g><path d="m290.802 240.18h27.764v96.533h-27.764z" fill="#fdba12" transform="matrix(-1 0 0 -1 609.368 576.893)"/></g><path d="m318.566 278.072v-37.892h-27.764v6.753z" fill="#ffa300"/><g><path d="m242.301 300.297h27.764v36.416h-27.764z" fill="#fdba12" transform="matrix(-1 0 0 -1 512.366 637.01)"/></g></g></g></svg>